Coordinates
version=1
nRows=43
nColumns=12
inDegrees=yes

Units are S.I. units (second, meters, Newtons, ...)
Angles are in degrees

endheader
time	SC_y	SC_z	SC_x	AC_y	AC_z	AC_x	GH_y	GH_z	GH_yy	EL_x	PS_y
       0.0              -20.28          8.281          41.34          48.99          9.718          13.64         -22.83         -8.629         -100.4          76.52          81.48
   0.03279              -20.28          8.283          41.34           49.0          9.716          13.64         -22.82         -8.615         -100.4          76.53          81.48
   0.06558              -20.28          8.286          41.35           49.0          9.713          13.63         -22.82           -8.6         -100.3          76.53          81.49
   0.09837              -20.27          8.289          41.35           49.0           9.71          13.63         -22.82         -8.584         -100.3          76.53           81.5
    0.1312              -20.27          8.292          41.36           49.0          9.707          13.62         -22.81         -8.568         -100.3          76.54          81.51
     0.164              -20.27          8.296          41.37          49.01          9.704          13.62         -22.81          -8.55         -100.3          76.54          81.51
    0.1967              -20.27          8.299          41.37          49.01          9.701          13.61          -22.8         -8.531         -100.2          76.55          81.52
    0.2295              -20.27          8.303          41.38          49.01          9.697          13.61          -22.8         -8.511         -100.2          76.55          81.53
    0.2623              -20.27          8.307          41.39          49.01          9.693           13.6          -22.8         -8.489         -100.1          76.56          81.54
    0.2951              -20.26          8.312          41.39          49.02          9.689          13.59         -22.79         -8.465         -100.1          76.57          81.55
    0.3279              -20.26          8.316           41.4          49.02          9.685          13.59         -22.79          -8.44         -100.1          76.57          81.57
    0.3607              -20.26          8.322          41.41          49.03           9.68          13.58         -22.78         -8.413         -100.0          76.58          81.58
    0.3935              -20.26          8.327          41.42          49.03          9.674          13.57         -22.77         -8.384         -99.97          76.59          81.59
    0.4263              -20.25          8.333          41.43          49.04          9.669          13.56         -22.77         -8.353         -99.91           76.6          81.61
    0.4591              -20.25          8.339          41.44          49.04          9.663          13.55         -22.76         -8.319         -99.85           76.6          81.62
    0.4919              -20.25          8.346          41.45          49.05          9.656          13.54         -22.75         -8.282         -99.79          76.61          81.64
    0.5247              -20.24          8.354          41.47          49.05          9.649          13.53         -22.74         -8.242         -99.72          76.63          81.66
    0.5574              -20.24          8.362          41.48          49.06          9.641          13.52         -22.73         -8.198         -99.64          76.64          81.68
    0.5902              -20.24          8.371           41.5          49.07          9.632           13.5         -22.72          -8.15         -99.56          76.65           81.7
     0.623              -20.23          8.381          41.51          49.07          9.623          13.49         -22.71         -8.098         -99.47          76.66          81.73
    0.6558              -20.23          8.392          41.53          49.08          9.613          13.47          -22.7         -8.041         -99.37          76.68          81.75
    0.6886              -20.22          8.404          41.55          49.09          9.601          13.45         -22.69         -7.977         -99.26           76.7          81.78
    0.7214              -20.21          8.417          41.58           49.1          9.589          13.43         -22.67         -7.908         -99.14          76.72          81.81
    0.7542              -20.21          8.432           41.6          49.11          9.575          13.41         -22.66          -7.83          -99.0          76.74          81.85
     0.787               -20.2          8.448          41.63          49.13          9.559          13.39         -22.64         -7.744         -98.85          76.76          81.89
    0.8198              -20.19          8.466          41.66          49.14          9.542          13.36         -22.62         -7.648         -98.69          76.79          81.94
    0.8526              -20.18          8.486           41.7          49.16          9.523          13.33          -22.6         -7.541          -98.5          76.81          81.99
    0.8853              -20.17          8.509          41.74          49.18          9.501           13.3         -22.57          -7.42         -98.29          76.85          82.04
    0.9181              -20.16          8.535          41.78           49.2          9.476          13.26         -22.54         -7.284         -98.05          76.88          82.11
    0.9509              -20.15          8.564          41.83          49.22          9.448          13.21         -22.51         -7.129         -97.78          76.93          82.18
    0.9837              -20.13          8.598          41.89          49.25          9.417          13.16         -22.47         -6.952         -97.48          76.97          82.26
     1.017              -20.11          8.636          41.96          49.28           9.38           13.1         -22.43         -6.749         -97.12          77.03          82.35
     1.049              -20.09          8.681          42.03          49.32          9.338          13.04         -22.38         -6.514         -96.72          77.09          82.46
     1.082              -20.07          8.732          42.12          49.36          9.289          12.96         -22.32         -6.242         -96.24          77.16          82.59
     1.115              -20.04          8.792          42.23          49.41          9.231          12.87         -22.25         -5.923         -95.69          77.25          82.74
     1.148              -20.01          8.863          42.35          49.46          9.164          12.76         -22.17         -5.548         -95.04          77.35          82.91
      1.18              -19.97          8.948           42.5          49.53          9.083          12.63         -22.08         -5.101         -94.26          77.47          83.12
     1.213              -19.92          9.049          42.67          49.61          8.987          12.48         -21.97         -4.566         -93.33          77.62          83.37
     1.246              -19.87          9.172          42.88          49.71          8.871           12.3         -21.83         -3.918          -92.2          77.79          83.67
     1.279               -19.8          9.321          43.14          49.83          8.728          12.07         -21.66         -3.127         -90.83           78.0          84.04
     1.312              -19.72          9.506          43.46          49.98          8.553          11.79         -21.46         -2.151         -89.13          78.27           84.5
     1.344              -19.61          9.736          43.86          50.16          8.333          11.45          -21.2         -0.934         -87.02          78.59          85.07
     1.377              -19.48          10.03          44.36           50.4          8.057          11.01         -20.87         0.5995         -84.35          79.01          85.78
